<?xml version="1.0" encoding="UTF-8"?>
<svg width="60" height="60" viewBox="0 0 43 46" xmlns="http://www.w3.org/2000/svg">
  <path d="M22.8701 38.5172C22.8904 38.5781 22.88 38.6393 22.8496 38.6901L18.7051 45.8893C18.624 46.0009 18.4929 46.0312 18.3916 45.9703L15.0469 44.0309C14.9458 43.9698 14.9051 43.8377 14.9658 43.7262L21.3203 32.7086C21.8371 34.6481 22.3533 36.5777 22.8701 38.5172ZM17.0068 30.4733C17.0676 30.3717 17.1991 30.3303 17.3105 30.3912L20.6543 32.3307C20.7556 32.3916 20.796 32.5338 20.7354 32.6354L16.6514 39.7233C16.5906 39.8248 16.449 39.8661 16.3477 39.8053L13.0039 37.8658C12.9026 37.8049 12.8622 37.6627 12.9229 37.5611L17.0068 30.4733ZM35.5 29.4147C35.5608 29.4248 35.6014 29.4655 35.6318 29.5162L39.7764 36.7154C39.8473 36.8271 39.8165 36.9592 39.7051 37.0201L36.3613 38.9596C36.26 39.0205 36.1184 38.9801 36.0576 38.8785L29.7041 27.861C31.6395 28.3788 33.5646 28.8968 35.5 29.4147ZM29.041 28.2428C29.1525 28.182 29.284 28.2233 29.3447 28.3248L33.4287 35.4127C33.4893 35.5244 33.4489 35.6565 33.3477 35.7174L30.0039 37.6568C29.8924 37.7178 29.76 37.6764 29.6992 37.5748L25.6162 30.4869C25.5555 30.3753 25.596 30.2431 25.6973 30.1822L29.041 28.2428ZM24.8467 30.6529C24.948 30.5921 25.0896 30.6335 25.1504 30.735L26.9238 33.8219C27.025 33.9945 26.8634 34.1968 26.6709 34.1461C24.8875 33.6689 23.0939 33.1921 21.3105 32.7047L24.8467 30.6529ZM16.46 29.9068C16.561 29.9678 16.6015 30.099 16.541 30.2106L14.7676 33.2985C14.6662 33.4706 14.4132 33.4402 14.3623 33.2477C13.8759 31.4401 13.3991 29.6423 12.9229 27.8551L16.46 29.9068ZM8.6748 32.11C8.63431 32.1506 8.5731 32.1705 8.52246 32.1705H0.222656C0.101308 32.1704 0.000214152 32.0695 0 31.9479V28.0787C0 27.957 0.101179 27.8552 0.222656 27.8551H12.9199C11.5014 29.2766 10.0934 30.6884 8.6748 32.11ZM33.5127 23.5406C33.7052 23.5406 33.8069 23.7846 33.665 23.9166C32.3578 25.2367 31.0507 26.5569 29.7334 27.8668V23.7643C29.7334 23.6424 29.8345 23.5406 29.9561 23.5406H33.5127ZM12.6963 22.986C12.8178 22.9861 12.9189 23.0878 12.9189 23.2096V27.0787C12.9187 27.2003 12.8177 27.3013 12.6963 27.3014H4.52832C4.40689 27.3013 4.30588 27.2004 4.30566 27.0787V23.2096C4.30566 23.0878 4.40676 22.986 4.52832 22.986H12.6963ZM38.1338 18.6969C38.2554 18.6969 38.3574 18.7987 38.3574 18.9205V22.7897C38.3572 22.9113 38.2553 23.0123 38.1338 23.0123H29.9668C29.8453 23.0123 29.7444 22.9113 29.7441 22.7897V18.9205C29.7441 18.7987 29.8452 18.6969 29.9668 18.6969H38.1338ZM6.27539 7.03576C6.37671 6.97505 6.51835 7.01633 6.5791 7.11779L12.9326 18.1354L12.9307 18.1344V22.235C12.9307 22.3568 12.8296 22.4586 12.708 22.4586H9.15137C8.95883 22.4586 8.85715 22.2146 8.99902 22.0826C10.3057 20.763 11.6119 19.453 12.9287 18.1334C10.9947 17.6159 9.0707 17.0991 7.13672 16.5817C7.07596 16.5715 7.03528 16.5308 7.00488 16.4801L2.85059 9.2799C2.78986 9.16822 2.82021 9.03612 2.93164 8.97521L6.27539 7.03576ZM42.4414 13.8297C42.5628 13.8299 42.6641 13.9316 42.6641 14.0533V17.9225C42.6638 18.044 42.5627 18.1449 42.4414 18.1451H29.7441C31.1627 16.7236 32.5707 15.3118 33.9893 13.8902C34.0298 13.8497 34.091 13.8297 34.1416 13.8297H42.4414ZM27.8662 12.7008C27.9677 12.5285 28.2208 12.5588 28.2715 12.7516C28.7478 14.5591 29.2337 16.3569 29.71 18.1442L26.1738 16.0924C26.0725 16.0315 26.032 15.8994 26.0928 15.7877L27.8662 12.7008ZM12.6279 8.35021C12.7394 8.28939 12.8709 8.33073 12.9316 8.43224L17.0156 15.5201C17.0763 15.6318 17.0358 15.7639 16.9346 15.8248L13.5908 17.7643C13.4794 17.8252 13.3479 17.7838 13.2871 17.6822L9.20312 10.5943C9.14246 10.4827 9.1829 10.3506 9.28418 10.2897L12.6279 8.35021ZM25.9795 6.27404C26.0403 6.17249 26.1828 6.13108 26.2842 6.19201L29.6279 8.13146C29.7292 8.19233 29.7696 8.33462 29.709 8.43615L25.625 15.524C25.5642 15.6255 25.4327 15.6669 25.3213 15.6061L21.9775 13.6666C21.8762 13.6057 21.8358 13.4635 21.8965 13.3619L25.9795 6.27404ZM23.9248 0.111927C23.9958 0.000308958 24.137 -0.0300368 24.2383 0.0308728L27.583 1.97033C27.684 2.03138 27.7248 2.16348 27.6641 2.27501L21.3096 13.2916C21.3141 13.2929 21.3187 13.2943 21.3232 13.2955L17.7871 15.3365C17.6858 15.3974 17.5433 15.357 17.4824 15.2555L15.709 12.1783C15.6078 12.0057 15.7704 11.8024 15.9629 11.8531C17.7415 12.3291 19.53 12.8056 21.3086 13.2916C20.7919 11.3525 20.2765 9.42314 19.7598 7.484C19.7395 7.42307 19.7489 7.36192 19.7793 7.31115L23.9248 0.111927Z" fill="currentColor"/>
</svg>